<svg viewBox="0 0 712 788" fill="none" xmlns="http://www.w3.org/2000/svg">
    <path d="M179.789 393.909C179.789 373.884 179.284 353.975 185.795 334.692C194.34 309.386 202.476 284.97 214.134 260.756C220.914 246.675 230.009 235.276 240.782 224.042C251.827 212.523 261.693 199.868 274.281 189.95C302.038 168.081 328.796 146.503 360.146 129.803C384.821 116.658 410.756 107.011 436.45 96.1339C468.899 82.3979 505.355 76.2842 539.149 66.5256C557.543 61.2138 575.881 56.1708 594.305 50.9601C606.759 47.4376 620.834 41.0898 633.896 40.6394C648.613 40.132 658.497 58.0749 663.842 69.6556C673.019 89.5387 670.102 117.816 670.102 139.277C670.102 166.625 671.186 193.885 666.296 220.912C660.144 254.907 653.327 286.467 639.817 318.365C629.171 343.503 617.207 367.767 599.719 389.002C577.632 415.822 563.382 447.987 542.702 475.966C525.546 499.178 507.39 520.205 483.147 536.367C460.537 551.441 438.961 565.737 411.918 571.39C395.503 574.821 377.916 578.307 361.161 579.595C343.073 580.987 338.673 549.043 332.906 537.213C324.61 520.197 315.662 500.034 298.476 489.925C282.07 480.274 264.797 471.671 247.719 463.277C240.993 459.971 234.429 455.211 227.331 452.787C222.031 450.978 216.196 451.134 210.75 449.911M179.789 437C167.289 434.5 153.907 422.427 142.905 419.457C124.304 414.434 105.344 409.051 87.0723 402.961C81.8695 401.226 78.0168 397.781 72.4373 396.954C68.5299 396.376 65.0495 395.412 61.7783 393.148C57.267 390.024 44.1313 391.394 42.829 385.534C41.5937 379.975 41.2217 375.356 41.2217 369.546C41.2217 352.89 43.0396 340.731 55.0953 327.756C77.4146 303.734 109.995 286.601 138.337 270.569C151.104 263.348 168.23 265.537 179.789 256.5C186.507 251.247 204.154 255.497 210.75 250L175.22 355.5L179.789 437Z"
          stroke="#333333" stroke-width="81" stroke-linecap="round"/>
    <path d="M376.161 674.41C372.081 654.419 358.696 624.524 360.326 604.057L456.282 568.059L556.189 491C542.643 547.247 521.669 563.513 505.954 588.308C494.806 605.897 489.902 621.039 477.772 637.962C465.171 655.541 454.699 676.271 439.668 691.825C430.181 701.642 419.239 710.283 408.058 718.091C406.083 719.47 394.04 729.883 390.963 728.94C385.45 727.249 385.217 710.19 383.228 705.434C379.331 696.114 378.174 684.275 376.161 674.41Z"
          stroke="#333333" stroke-width="81" stroke-linecap="round"/>
    <path d="M52.5995 720C48.625 694.662 49.3841 666.868 51.0958 641.381C51.8423 630.267 52.2638 615.732 58.7214 606.045C63.794 598.437 74.0182 594.633 81.5982 590.042C97.3376 580.51 115.416 580.806 133.366 580.806C147.753 580.806 165.911 577.115 178.153 585.531C193.215 595.886 200.46 608.541 202.426 626.237C204.846 648.017 193.213 677.725 176.005 691.86C157.579 706.996 129.286 715.991 107.375 724.94C92.1817 731.146 76.4813 741.418 60.3325 744.702C53.7587 746.039 47.5407 745.196 41 747.065"
          stroke="#333333" stroke-width="81" stroke-linecap="round"/>
    <path d="M413.223 274.316C395.944 282.956 386.861 293.541 383.795 312.551C382.259 322.076 380.189 332.12 386.158 340.476C392.172 348.896 406.032 351.831 416.016 351.646C430.506 351.378 440.596 347.198 448.022 334.999C455.615 322.525 457.593 277.276 442.007 269.483C428.002 262.48 401.81 255.961 391.958 272.383"
          stroke="#333333" stroke-width="81" stroke-linecap="round"/>
</svg>
