<svg viewBox="0 0 842 756" fill="none" xmlns="http://www.w3.org/2000/svg">
    <path d="M278.286 248.584C294.754 218.283 311.17 188.644 324.376 156.951C331.371 140.162 337.346 123.16 347.011 107.589C360.285 86.2035 370.44 63.4727 387.374 45C397.738 33.6931 403.614 49.2215 407.691 56.3178C420.243 78.1668 440.752 97.5361 450.917 120.407C457.767 135.819 463.167 151.383 468.644 167.314C473.861 182.494 487.64 193.535 495.37 207.404C500.545 216.688 503.463 233.48 510.915 240.675C518.612 248.107 532.622 248.562 542.278 250.357C577.974 256.991 613.105 265.118 649.183 269.447C668.598 271.777 687.446 275.942 706.727 278.583C722.105 280.69 741.09 280.095 754.861 288.128C765.273 294.202 800.232 307.717 801.087 321.4C803.058 352.929 780.52 359.314 754.861 369.944C713.075 387.255 671.543 405.485 630.638 424.078C586.266 444.248 627.584 536.218 634.456 563.574C646.27 610.598 647.014 659.294 653.274 707.024C654.457 716.045 652.489 717.182 643.592 712.205C620.327 699.193 601.796 679.165 580.731 663.116C539.148 631.434 493.454 608.954 454.599 573.392C449.765 568.968 441.719 558.391 434.281 557.847C412.487 556.252 391.267 568.238 372.647 577.755C341.564 593.642 312.149 612.143 282.786 630.935C268.594 640.018 255.134 651.066 239.969 658.48C224.006 666.284 207.753 673.481 191.834 681.388C186.641 683.968 173.498 693.897 166.881 693.388C160.223 692.876 159.272 655.713 159.108 652.753C156.714 609.502 159.033 563.992 172.744 522.666C180.716 498.638 189.516 475.243 201.925 453.123C204.806 447.988 222.27 427.668 221.015 421.079C219.115 411.1 206.787 402.979 199.198 397.761C185.47 388.323 174.39 376.537 161.29 366.399C134.808 345.903 105.383 329.744 79.3382 308.582C68.9496 300.142 58.5678 291.831 47.2938 284.583C37.2725 278.141 39.5101 276.188 51.93 273.129C71.7419 268.25 92.3461 268.181 112.473 265.356C146.917 260.522 180.824 254.989 215.561 252.402C232.115 251.17 249.467 248.584 266.014 248.584"
          stroke="#333333" stroke-width="81" stroke-linecap="round"/>
</svg>
