<svg width="974" height="882" viewBox="0 0 974 882" fill="none" xmlns="http://www.w3.org/2000/svg">
<path d="M107 177C147.5 134.5 194 105.5 194 105.5L253.521 79.5885C253.521 79.5885 404.837 27.9119 484.247 44.201C551.975 58.094 634.065 55.5512 699.5 79.5885C767.073 104.411 805.226 112.953 857.5 165.226C893.233 200.959 927.112 274.095 928.438 324.47C930.242 393.04 940.647 479.615 920.653 545.996C899.399 616.557 884.596 672.01 837.5 731.5C800.618 778.088 707.501 828.794 651 834.05C577.692 840.869 536.136 845.774 463.722 834.05C402.909 824.204 340.194 830.355 285.723 800.786C194.527 751.279 91.3246 654.719 56.0584 554.489C42.9895 517.345 36.8365 469.47 44.0267 429.925C52.9274 380.97 56.5323 333.181 62.4281 283.067C67.2737 241.88 88.5072 213.986 107 177Z" stroke="#545454" stroke-width="81" stroke-linecap="round"/>
<path d="M329.958 413.293C329.958 339.814 356.876 314.084 425.504 283.421L457.352 277.051C498.126 277.051 519.653 282.366 557.853 298.283C582.604 308.596 612.882 328.066 624 363.5C630.403 383.908 629.832 402.364 629.336 415.77C627.979 452.399 592.43 466.175 565.992 483.36C507.559 521.341 408.378 539.278 361.806 473.097C346.735 451.68 329.958 440.864 329.958 413.293Z" stroke="#545454" stroke-width="81" stroke-linecap="round"/>
<path d="M374.546 487.253C307.488 510.053 289.465 550.694 269.091 611.817C255.404 652.878 221.672 697.985 221.672 742.043" stroke="#545454" stroke-width="81" stroke-linecap="round"/>
<path d="M597.487 487.253C605.774 513.15 619.495 537.277 638.536 557.32C657.939 577.744 663.247 598.697 675.339 623.849C699.018 673.099 724.882 731.048 724.882 786.631" stroke="#545454" stroke-width="81" stroke-linecap="round"/>
</svg>
