<svg viewBox="0 0 814 679" fill="none" xmlns="http://www.w3.org/2000/svg">
    <path d="M375.249 266.42C375.249 239.76 379.124 209.066 371.352 183.161C360.051 145.49 315.658 119.143 284.55 99.1939C237.096 68.7612 185.719 56.1706 128.662 53.7933C85.7698 52.0061 56.8712 60.4937 47.8835 108C40.298 148.095 38.0671 191.726 47.8833 230.991C71.0238 323.553 121.148 423.722 198.421 472.265C244.752 501.37 289.638 528.748 334.469 560.129C367.96 583.573 409.148 621.97 446.78 637.365C462.843 643.936 483.776 612.153 492.129 602.999C525.232 566.722 561.305 535.056 599.125 503.797C657.789 455.309 716.664 385.876 745.13 317.084C765.893 266.907 770.639 220.64 770.639 167.218C770.639 147.712 777.772 114.553 767.096 97.7767C745.799 64.3085 693.912 49.1537 662 43.2166C615.604 34.5849 566.754 55.5124 522.989 85.7308C486.925 110.633 454.008 154.795 427.685 189.893C411.151 211.938 408.379 233.291 388.004 253.665"
          stroke="#333333" stroke-width="81" stroke-linecap="round"/>
</svg>
